<?xml version="1.0" standalone="no"?>
<!DOCTYPE svg PUBLIC "-//W3C//DTD SVG 20010904//EN"
 "http://www.w3.org/TR/2001/REC-SVG-20010904/DTD/svg10.dtd">
<svg version="1.0" xmlns="http://www.w3.org/2000/svg"
 width="497.000000pt" height="508.000000pt" viewBox="0 0 497.000000 508.000000"
 preserveAspectRatio="xMidYMid meet">

<g transform="translate(0.000000,508.000000) scale(0.100000,-0.100000)"
fill="#000000" stroke="none">
<path d="M0 2540 l0 -2540 2485 0 2485 0 0 2540 0 2540 -2485 0 -2485 0 0
-2540z m2040 2183 c19 -25 48 -40 97 -52 30 -7 33 -9 12 -10 -35 -1 -91 19
-107 38 -16 21 -62 108 -62 118 1 4 11 -10 23 -33 12 -22 29 -49 37 -61z m364
58 c9 -16 36 -50 61 -77 26 -27 53 -59 62 -71 8 -13 18 -21 22 -19 3 2 6 -28
7 -68 1 -39 -1 -60 -3 -46 -6 37 -20 64 -100 186 -40 61 -73 114 -73 118 0 14
10 4 24 -23z m-467 -18 c-3 -10 -5 -4 -5 12 0 17 2 24 5 18 2 -7 2 -21 0 -30z
m151 -123 c24 -11 51 -20 60 -20 8 0 12 -3 9 -7 -4 -3 1 -12 11 -20 15 -13 15
-13 -6 -3 -12 6 -33 8 -45 5 -14 -4 -18 -3 -9 3 9 6 0 13 -30 22 -56 18 -87
41 -88 63 0 17 2 17 27 -3 14 -11 46 -29 71 -40z m345 43 c3 -5 -20 -7 -51 -5
-98 5 -110 9 -30 11 42 0 79 -2 81 -6z m-189 -12 c-17 -4 -36 -11 -42 -15 -6
-3 -13 -2 -16 3 -7 10 21 18 64 19 21 0 20 -1 -6 -7z m459 -18 c-7 -2 -21 -2
-30 0 -10 3 -4 5 12 5 17 0 24 -2 18 -5z m-256 -11 c7 -5 -29 -7 -80 -5 -128
6 -140 10 -27 12 52 0 101 -3 107 -7z m150 -8 c-3 -3 -12 -4 -19 -1 -8 3 -5 6
6 6 11 1 17 -2 13 -5z m96 -11 c-13 -2 -33 -2 -45 0 -13 2 -3 4 22 4 25 0 35
-2 23 -4z m-715 -8 c-7 -7 -144 -45 -160 -44 -18 0 123 47 146 48 11 1 17 -1
14 -4z m789 -1 c-3 -3 -12 -4 -19 -1 -8 3 -5 6 6 6 11 1 17 -2 13 -5z m31 -73
c0 -72 4 -84 78 -223 16 -30 24 -58 22 -80 l-3 -33 -14 39 c-8 22 -31 66 -52
98 -36 57 -59 129 -59 188 0 28 15 80 24 80 2 0 4 -31 4 -69z m232 54 c113
-27 420 -151 420 -170 0 -2 -35 12 -77 31 -105 49 -242 98 -333 119 -41 10
-84 21 -95 26 l-20 8 20 0 c11 0 49 -6 85 -14z m-1060 -9 c0 -6 -105 -36 -122
-35 -7 0 14 9 47 19 66 20 75 22 75 16z m314 -12 c3 -8 2 -12 -4 -9 -6 3 -10
10 -10 16 0 14 7 11 14 -7z m616 -10 c0 -8 -4 -14 -8 -14 -14 0 -41 -67 -37
-91 4 -21 3 -20 -7 4 -7 15 -15 27 -20 27 -18 0 -6 52 16 75 26 26 56 25 56
-1z m-672 4 c7 -7 12 -19 12 -27 -1 -12 -4 -11 -12 4 -6 11 -16 23 -22 27 -7
5 -8 8 0 8 5 0 15 -5 22 -12z m762 -8 c20 -6 21 -8 5 -8 -11 0 -29 3 -40 8
-25 11 1 11 35 0z m-1300 -30 c-34 -11 -60 -11 -35 0 11 5 29 8 40 8 16 0 15
-2 -5 -8z m976 0 c22 0 28 -27 11 -45 -19 -18 -47 -20 -47 -2 0 6 -3 23 -7 36
-5 20 -3 23 11 18 10 -4 24 -7 32 -7z m86 -20 c-2 -16 -6 -30 -8 -30 -2 0 -4
14 -4 30 0 17 4 30 8 30 5 0 7 -13 4 -30z m343 20 c13 -5 14 -9 5 -9 -8 0 -24
4 -35 9 -13 5 -14 9 -5 9 8 0 24 -4 35 -9z m55 -20 c8 -5 11 -10 5 -10 -5 0
-17 5 -25 10 -8 5 -10 10 -5 10 6 0 17 -5 25 -10z m-1367 -126 c20 -39 61 -74
126 -110 56 -30 84 -67 31 -39 -17 8 -45 22 -62 31 -82 41 -129 111 -127 186
l2 43 6 -40 c4 -22 15 -54 24 -71z m1134 69 c-3 -10 -5 -4 -5 12 0 17 2 24 5
18 2 -7 2 -21 0 -30z m-367 -40 c-11 -17 -11 -17 -6 0 3 10 6 24 7 30 0 9 2 9
5 0 3 -7 0 -20 -6 -30z m-1073 21 c-3 -3 -12 -4 -19 -1 -8 3 -5 6 6 6 11 1 17
-2 13 -5z m123 -26 c24 -13 46 -29 48 -37 3 -8 -9 -4 -29 11 -19 14 -52 30
-74 36 -30 7 -34 10 -15 11 14 1 46 -9 70 -21z m610 12 c0 -5 -5 -10 -11 -10
-5 0 -7 5 -4 10 3 6 8 10 11 10 2 0 4 -4 4 -10z m813 -66 c48 -25 95 -62 108
-87 9 -16 0 -11 -29 15 -23 20 -60 47 -84 59 -45 22 -98 67 -98 82 0 5 16 -5
35 -22 19 -17 50 -38 68 -47z m-1703 56 c-8 -5 -19 -10 -25 -10 -5 0 -3 5 5
10 8 5 20 10 25 10 6 0 3 -5 -5 -10z m2180 -11 c17 -13 18 -17 5 -10 -33 17
-51 31 -40 31 6 0 21 -10 35 -21z m-2253 -15 c-3 -3 -12 -4 -19 -1 -8 3 -5 6
6 6 11 1 17 -2 13 -5z m-40 -10 c-3 -3 -12 -4 -19 -1 -8 3 -5 6 6 6 11 1 17
-2 13 -5z m2348 -4 c3 -6 -1 -7 -9 -4 -18 7 -21 14 -7 14 6 0 13 -4 16 -10z
m-1999 -16 c33 -16 64 -48 64 -67 0 -5 -18 6 -40 23 -23 18 -60 38 -83 46
l-42 13 33 0 c19 1 49 -6 68 -15z m842 -19 c-3 -3 -9 2 -12 12 -6 14 -5 15 5
6 7 -7 10 -15 7 -18z m319 -87 c27 -26 44 -48 38 -48 -17 1 -84 68 -100 102
-13 28 -14 30 -1 13 9 -11 37 -41 63 -67z m-872 -28 c10 -11 16 -20 13 -20 -3
0 -13 9 -23 20 -10 11 -16 20 -13 20 3 0 13 -9 23 -20z m1648 -138 c37 -30 67
-59 67 -64 0 -5 -18 5 -40 22 -38 30 -54 30 -27 0 6 -8 -5 0 -26 18 -21 18
-41 32 -46 32 -4 0 -21 11 -37 25 -16 14 -22 23 -13 20 10 -4 20 -1 24 4 8 14
13 11 98 -57z m-273 48 c14 0 70 -50 81 -74 8 -14 -1 -9 -27 15 -22 20 -52 44
-69 53 -16 10 -22 15 -12 12 10 -3 22 -6 27 -6z m-935 -21 c22 -6 83 -31 135
-57 75 -37 108 -47 159 -50 46 -3 66 -1 72 9 5 9 34 15 81 17 57 3 86 -1 132
-18 59 -23 128 -76 147 -114 7 -13 -1 -9 -21 12 -18 18 -50 44 -72 58 -40 25
-42 26 -217 22 l-176 -3 -108 54 c-79 40 -122 56 -162 59 -73 6 -89 1 -180
-58 -42 -28 -79 -50 -81 -48 -8 9 155 109 191 117 54 12 55 12 100 0z m1336
-93 c23 -38 25 -60 3 -26 -10 14 -33 43 -53 64 l-36 39 33 -23 c19 -12 43 -37
53 -54z m-1306 48 l30 -14 -30 7 c-16 3 -52 9 -80 13 l-50 7 50 1 c28 1 64 -5
80 -14z m-155 -4 c-20 -13 -33 -13 -25 0 3 6 14 10 23 10 15 0 15 -2 2 -10z
m220 -20 c13 -8 13 -10 -2 -10 -9 0 -20 5 -23 10 -8 13 5 13 25 0z m120 -59
c38 -13 76 -20 92 -17 33 6 36 -4 8 -29 -19 -17 -20 -17 -20 1 0 17 -2 16 -16
-4 -8 -12 -20 -22 -25 -22 -16 0 -23 32 -8 41 11 7 11 9 -3 9 -10 0 -18 -4
-18 -9 0 -5 -11 -11 -25 -13 -21 -4 -24 -2 -20 12 3 10 -2 23 -12 31 -16 12
-17 12 -6 -1 8 -10 9 -21 3 -30 -6 -8 -10 -28 -10 -43 0 -24 -2 -26 -19 -17
-35 18 -102 12 -135 -13 -53 -40 -62 -41 -27 -4 19 20 43 39 53 43 10 3 18 10
18 15 0 6 -4 7 -10 4 -6 -3 -7 1 -4 10 4 9 23 24 43 35 30 16 32 19 14 20 -13
0 -23 -4 -23 -10 0 -5 -10 -10 -23 -10 -12 0 -33 -8 -46 -17 -15 -10 -21 -11
-16 -3 6 9 0 12 -27 8 -54 -6 -36 17 23 30 62 15 126 15 134 2 3 -5 13 -10 22
-10 13 0 14 2 2 18 -12 15 -12 16 1 6 8 -6 44 -21 80 -33z m340 -7 c0 -6 -38
-56 -60 -79 -31 -33 -71 -55 -102 -55 l-22 0 24 17 c34 23 41 35 34 56 -5 16
-2 18 18 12 17 -6 20 -4 12 5 -9 9 -21 9 -53 -1 -46 -14 -66 -5 -37 17 15 10
16 14 5 15 -8 1 0 5 16 9 37 9 165 12 165 4z m74 -20 c14 -14 14 -17 1 -30 -8
-9 -15 -20 -15 -25 0 -5 -4 -9 -10 -9 -5 0 -6 7 -3 17 4 9 2 14 -3 10 -6 -3
-16 -2 -23 2 -10 7 -10 13 -2 30 14 25 34 27 55 5z m-1017 -30 c-3 -3 -12 -4
-19 -1 -8 3 -5 6 6 6 11 1 17 -2 13 -5z m-93 -33 c-35 -17 -74 -44 -92 -67
-18 -21 -32 -35 -32 -30 0 16 61 85 80 91 11 4 20 12 20 18 0 7 18 13 42 14
l43 3 -61 -29z m130 5 c-3 -7 -11 -13 -18 -13 -11 0 -12 4 -3 18 12 20 29 16
21 -5z m78 -6 c6 0 8 -10 4 -24 -4 -15 -1 -26 7 -29 9 -4 9 -7 -1 -15 -9 -6
-11 -18 -6 -36 5 -21 3 -25 -9 -21 -23 10 -25 -31 -6 -130 19 -94 23 -143 13
-132 -4 3 -10 21 -14 39 -3 18 -11 32 -17 31 -5 -1 -34 23 -63 54 l-53 56 33
66 c18 36 46 85 62 108 15 23 29 48 29 55 1 7 3 5 6 -4 2 -10 9 -18 15 -18z
m822 6 c-3 -9 -12 -16 -20 -16 -11 0 -10 4 3 20 19 22 26 21 17 -4z m-382
-174 l-10 -77 1 87 c1 48 -2 90 -6 94 -4 4 -7 17 -6 28 0 15 5 9 16 -17 13
-31 14 -51 5 -115z m588 127 c0 -6 -4 -7 -10 -4 -5 3 -10 11 -10 16 0 6 5 7
10 4 6 -3 10 -11 10 -16z m-270 5 c0 -9 -32 -33 -44 -34 -5 0 -1 9 9 20 18 20
35 26 35 14z m-100 -54 c-8 -5 -22 -9 -30 -9 -10 0 -8 3 5 9 27 12 43 12 25 0z
m516 -105 c59 -30 154 -114 154 -136 0 -6 -19 9 -41 35 -23 26 -67 60 -99 76
-71 36 -116 73 -137 114 -13 27 -10 25 25 -14 22 -25 66 -59 98 -75z m-586 81
c0 -2 -7 -7 -16 -10 -8 -3 -12 -2 -9 4 6 10 25 14 25 6z m783 -21 c-3 -9 -8
-14 -10 -11 -3 3 -2 9 2 15 9 16 15 13 8 -4z m-205 -95 c17 0 82 -52 82 -66 0
-8 -4 -12 -10 -9 -5 3 -10 -1 -10 -9 0 -24 -15 -19 -28 9 -10 21 -16 24 -38
19 -15 -4 -40 0 -65 11 -37 17 -39 20 -36 60 l2 41 48 -28 c26 -15 51 -28 55
-28z m-1531 -12 c-3 -8 -6 -5 -6 6 -1 11 2 17 5 13 3 -3 4 -12 1 -19z m-10
-70 c-3 -8 -6 -5 -6 6 -1 11 2 17 5 13 3 -3 4 -12 1 -19z m-167 -117 c23 -13
29 -21 17 -21 -9 0 -34 16 -55 37 -20 20 -28 29 -17 21 11 -9 36 -25 55 -37z
m-446 -60 c-3 -3 -15 6 -27 18 l-22 24 27 -19 c14 -10 24 -21 22 -23z m878
-329 c10 -4 -23 -7 -71 -7 -49 0 -84 3 -78 7 15 9 126 9 149 0z m-186 -25
c-10 -7 -30 -22 -45 -33 -31 -26 -191 -109 -170 -89 8 7 46 30 84 51 39 20 84
47 100 60 17 13 35 24 40 23 6 0 2 -6 -9 -12z m254 3 c18 -12 2 -12 -25 0 -13
6 -15 9 -5 9 8 0 22 -4 30 -9z m65 -30 c3 -6 -1 -7 -9 -4 -18 7 -21 14 -7 14
6 0 13 -4 16 -10z m72 -76 c75 -25 72 -34 -3 -13 -78 21 -96 23 -74 8 12 -8 9
-9 -12 -5 -15 3 -30 2 -33 -4 -4 -6 16 -10 52 -10 37 0 67 -6 79 -15 10 -8 26
-15 35 -15 28 0 42 -25 29 -50 -13 -25 -24 -24 -108 9 -99 37 -121 65 -77 97
25 18 54 18 112 -2z m114 -31 c13 -16 12 -17 -3 -4 -10 7 -18 15 -18 17 0 8 8
3 21 -13z m-1514 -95 c-3 -8 -6 -5 -6 6 -1 11 2 17 5 13 3 -3 4 -12 1 -19z
m10 -110 c-3 -7 -5 -2 -5 12 0 14 2 19 5 13 2 -7 2 -19 0 -25z m78 -108 c3 -6
-1 -7 -9 -4 -18 7 -21 14 -7 14 6 0 13 -4 16 -10z m101 -58 c-10 -2 -22 0 -28
6 -6 6 0 7 19 4 21 -5 23 -7 9 -10z m104 -52 c0 -5 -2 -10 -4 -10 -3 0 -8 5
-11 10 -3 6 -1 10 4 10 6 0 11 -4 11 -10z m505 -78 c-3 -3 -11 0 -18 7 -9 10
-8 11 6 5 10 -3 15 -9 12 -12z m100 -52 c3 -6 -1 -7 -9 -4 -18 7 -21 14 -7 14
6 0 13 -4 16 -10z m1944 -253 c29 -14 25 -30 -8 -33 -49 -6 -319 -121 -353
-152 -10 -8 -18 -12 -18 -9 0 16 44 49 107 81 37 19 62 35 55 36 -7 0 -44 -16
-82 -35 -39 -19 -70 -30 -70 -24 0 18 292 148 335 149 6 0 21 -6 34 -13z m540
-10 c9 -8 42 -19 73 -26 76 -16 172 -65 194 -99 11 -17 12 -23 3 -16 -8 6 -57
28 -109 48 -113 44 -162 67 -172 81 -5 6 -8 6 -8 -1 0 -6 -18 -14 -40 -18 -28
-4 -50 -18 -79 -47 -57 -59 -82 -32 -27 30 49 56 129 79 165 48z m-2702 -33
c27 -21 82 -94 137 -183 26 -42 -20 10 -74 83 -41 57 -67 83 -76 79 -8 -3 -14
-2 -13 3 4 21 -2 28 -12 14 -8 -11 -12 -12 -16 -2 -6 15 -62 16 -99 2 -23 -9
-25 -9 -15 4 14 17 37 23 95 25 28 1 49 -6 73 -25z m2414 -23 c39 -38 49 -61
28 -61 -5 0 -8 4 -5 9 3 5 -2 15 -11 22 -14 12 -16 12 -8 0 6 -11 4 -13 -9 -8
-10 4 -25 7 -34 7 -13 0 -14 2 -4 9 11 7 10 10 -3 15 -31 12 -58 7 -51 -9 3
-8 1 -15 -3 -15 -5 0 -11 6 -13 12 -5 15 -147 -31 -189 -61 -25 -19 -26 -19
-37 0 -14 22 -1 32 98 77 72 33 94 39 159 41 38 1 48 -4 82 -38z m-3096 19
c-3 -5 -1 -10 4 -10 6 0 11 5 11 10 0 6 11 10 25 10 14 0 25 -5 25 -11 0 -6
-6 -9 -12 -6 -7 2 -24 -3 -38 -13 -46 -31 -56 -34 -36 -12 11 12 14 22 8 22
-9 0 -67 -61 -152 -160 -12 -14 -8 -5 8 20 34 52 138 160 153 160 6 0 7 -4 4
-10z m383 -33 c23 -21 30 -47 12 -47 -5 0 -10 4 -10 8 0 23 -43 52 -78 52 -36
0 -250 -42 -284 -55 -10 -4 -18 -3 -18 2 0 12 48 26 155 47 151 29 185 28 223
-7z m3295 6 c-7 -2 -19 -2 -25 0 -7 3 -2 5 12 5 14 0 19 -2 13 -5z m8 -30 c13
-16 12 -17 -3 -4 -17 13 -22 21 -14 21 2 0 10 -8 17 -17z m-3411 -3 c-14 -4
-36 -8 -50 -8 -22 0 -22 1 5 8 17 4 39 8 50 8 16 0 15 -2 -5 -8z m295 -20 c0
-12 -11 -14 -50 -13 -27 2 -52 -2 -56 -8 -4 -8 -9 -8 -13 -1 -3 6 1 18 10 27
22 21 109 17 109 -5z m2362 14 c-3 -3 -12 -4 -19 -1 -8 3 -5 6 6 6 11 1 17 -2
13 -5z m-2749 -11 c-10 -2 -26 -2 -35 0 -10 3 -2 5 17 5 19 0 27 -2 18 -5z
m477 -13 c3 -5 2 -10 -4 -10 -5 0 -13 5 -16 10 -3 6 -2 10 4 10 5 0 13 -4 16
-10z m-582 -7 c-7 -2 -19 -2 -25 0 -7 3 -2 5 12 5 14 0 19 -2 13 -5z m2774 1
c-3 -3 -12 -4 -19 -1 -8 3 -5 6 6 6 11 1 17 -2 13 -5z m-2217 -24 c6 -11 8
-20 6 -20 -3 0 -10 9 -16 20 -6 11 -8 20 -6 20 3 0 10 -9 16 -20z m74 5 c11
-8 17 -15 14 -15 -3 0 36 -41 88 -91 52 -50 87 -88 78 -85 -10 4 -21 2 -24 -5
-6 -8 -9 -8 -14 0 -4 6 -1 11 6 11 7 0 -21 33 -62 73 -41 39 -86 84 -99 100
-26 29 -18 36 13 12z m-241 -51 c119 -30 174 -51 181 -70 4 -12 2 -12 -15 -4
-50 27 -171 58 -207 54 -26 -4 -33 -3 -23 4 11 8 9 11 -8 17 -13 4 -33 4 -47
1 -15 -4 -24 -2 -24 5 0 8 -4 9 -13 0 -18 -14 -30 -2 -16 15 12 15 30 13 172
-22z m2611 20 c60 -16 205 -15 279 2 17 4 27 2 27 -5 0 -6 -14 -14 -30 -18
-17 -3 -33 -10 -36 -14 -3 -5 -17 -10 -32 -10 -17 -1 -21 -3 -9 -6 9 -2 33 1
53 7 40 14 60 6 22 -9 -39 -15 -103 -17 -100 -3 1 7 -5 12 -13 12 -8 0 -15 -4
-15 -10 0 -5 -19 -10 -42 -10 -58 1 -174 33 -170 48 1 7 -5 12 -14 12 -8 0
-12 5 -9 10 8 13 17 13 89 -6z m-3027 -40 c37 -5 63 -28 48 -42 -3 -3 -5 0 -5
6 0 8 -21 12 -59 12 -33 0 -63 5 -66 10 -3 6 -16 10 -28 10 -22 -1 -22 -1 -3
-15 11 -8 15 -15 9 -15 -5 0 -18 9 -27 19 -29 32 0 35 131 15z m2560 -4 c4
-13 3 -13 -5 -1 -8 12 -19 9 -64 -14 -29 -15 -60 -33 -69 -41 -24 -22 -34 -16
-13 7 26 28 104 69 128 66 11 -1 21 -9 23 -17z m994 -11 c66 -18 189 -73 189
-84 0 -3 -21 5 -47 18 -66 33 -127 54 -197 68 -39 7 -54 14 -45 19 7 5 17 6
21 4 5 -3 40 -14 79 -25z m-2606 -9 c42 -20 70 -42 95 -75 8 -11 -3 -5 -24 14
-47 40 -94 61 -142 63 -22 1 -30 4 -22 9 21 14 50 10 93 -11z m1825 0 c-42
-32 -180 -102 -193 -97 -10 3 195 115 213 116 3 0 -6 -8 -20 -19z m-2400 0
c12 -8 11 -10 -5 -9 -11 1 -31 5 -45 9 -24 8 -24 8 5 9 17 0 37 -4 45 -9z
m2129 -16 c-35 -26 -79 -52 -68 -40 15 16 85 65 93 66 6 0 -6 -12 -25 -26z
m-2524 -4 l30 -8 -35 -1 c-19 0 -42 4 -50 9 -12 8 -11 10 5 9 11 -1 34 -5 50
-9z m470 0 c3 -5 2 -10 -4 -10 -5 0 -13 5 -16 10 -3 6 -2 10 4 10 5 0 13 -4
16 -10z m472 -6 c-3 -3 -12 -4 -19 -1 -8 3 -5 6 6 6 11 1 17 -2 13 -5z m51
-18 c28 -15 89 -86 74 -86 -4 0 -18 14 -31 31 -12 16 -37 39 -54 50 -37 22
-29 26 11 5z m-1168 -6 c-8 -5 -19 -10 -25 -10 -5 0 -3 5 5 10 8 5 20 10 25
10 6 0 3 -5 -5 -10z m99 -65 c-32 -33 -55 -42 -29 -10 24 29 4 15 -31 -22 -23
-24 -28 -34 -15 -29 16 6 17 4 6 -9 -10 -12 -15 -13 -20 -4 -5 7 -18 -6 -36
-36 -15 -27 -30 -43 -32 -37 -10 31 131 182 169 182 19 0 17 -3 -12 -35z m36
-5 c-10 -11 -23 -20 -28 -20 -6 0 0 9 13 20 13 11 25 20 28 20 3 0 -3 -9 -13
-20z m1150 -7 l18 -28 -21 19 c-12 11 -22 23 -22 28 0 14 7 9 25 -19z m-125
-53 c12 -8 10 -10 -10 -10 -15 0 -31 -5 -38 -12 -7 -7 -12 -8 -12 -2 0 13 21
34 35 34 5 0 17 -5 25 -10z m-169 -70 c5 0 9 -4 9 -10 0 -18 -14 -10 -65 36
l-50 45 49 -35 c27 -20 53 -36 57 -36z m64 -14 c22 -16 32 -26 22 -22 -27 9
-123 74 -139 93 -13 17 46 -19 117 -71z m-870 54 c34 -13 102 -68 110 -89 3
-9 -9 -2 -27 15 -52 48 -80 64 -115 64 -18 0 -33 5 -33 10 0 13 31 13 65 0z
m991 -9 c14 -11 21 -22 17 -24 -5 -3 -21 6 -36 19 -33 28 -16 33 19 5z m-925
-68 c13 -16 12 -17 -3 -4 -10 7 -18 15 -18 17 0 8 8 3 21 -13z m809 -15 c0
-10 -36 7 -45 22 -4 6 5 5 19 -2 14 -6 26 -15 26 -20z m234 -88 c4 -15 -4 -6
-20 20 -15 25 -33 52 -40 61 -8 8 -14 19 -14 24 0 15 67 -80 74 -105z m-1230
49 c5 -5 7 -11 5 -14 -7 -7 -59 18 -59 28 0 10 40 -1 54 -14z m-34 -24 c14 -8
21 -14 15 -14 -5 0 -21 6 -35 14 -14 8 -20 14 -15 14 6 0 21 -6 35 -14z m330
-44 c36 -6 109 -11 162 -11 94 0 97 -1 116 -27 34 -50 35 -53 12 -53 -15 0
-20 5 -17 15 4 8 2 17 -3 20 -6 4 -10 0 -11 -7 0 -7 -4 -3 -9 8 -8 20 -18 22
-152 28 -162 7 -195 11 -221 21 -11 5 -25 1 -37 -10 -28 -25 -25 -11 3 15 17
17 30 20 57 16 19 -3 64 -10 100 -15z m2996 -30 c-3 -5 -21 -12 -40 -15 -22
-4 -52 -23 -81 -52 -26 -25 -50 -42 -54 -39 -12 13 82 85 128 99 25 8 47 15
49 15 2 1 1 -3 -2 -8z m-3011 -21 c13 -5 14 -9 5 -9 -8 0 -24 4 -35 9 -13 5
-14 9 -5 9 8 0 24 -4 35 -9z m2759 -6 c33 -12 14 -24 -31 -19 -38 3 -51 0 -66
-15 -10 -11 -25 -20 -35 -20 -15 0 -15 2 -2 10 8 5 12 10 9 10 -15 0 -244 -62
-260 -71 -10 -5 -21 -9 -26 -9 -24 2 64 36 166 65 64 18 127 38 141 44 29 11
81 14 104 5z m341 -6 c40 -12 40 -12 10 -16 l-30 -4 30 -13 30 -14 -35 6 c-51
7 -62 12 -55 23 8 13 -31 13 -55 0 -19 -10 -50 -4 -50 10 0 21 97 25 155 8z
m-2898 -4 c-3 -3 -12 -4 -19 -1 -8 3 -5 6 6 6 11 1 17 -2 13 -5z m-347 -14 c0
-5 -5 -10 -11 -10 -5 0 -7 5 -4 10 3 6 8 10 11 10 2 0 4 -4 4 -10z m3090 -15
c0 -7 -6 -15 -14 -18 -9 -4 -12 2 -11 16 3 29 3 29 15 22 6 -3 10 -12 10 -20z
m-2399 -2 c28 -17 58 -73 38 -73 -5 0 -9 6 -9 14 0 24 -55 56 -92 55 l-33 -2
35 -6 c43 -8 25 -17 -52 -27 -29 -4 -57 -10 -63 -14 -5 -4 -30 -7 -55 -8 -42
-1 -43 0 -15 9 17 5 48 12 69 14 21 3 46 10 55 16 17 11 3 10 -114 -10 -33 -6
-79 -11 -102 -11 -28 0 -45 -5 -51 -16 -5 -10 -12 -12 -15 -7 -14 22 30 41
108 47 44 4 112 13 150 20 96 19 113 19 146 -1z m2144 -22 c-11 -5 -36 -11
-55 -14 -35 -6 -34 -6 5 8 43 14 84 19 50 6z m-118 -7 c-3 -3 -12 -4 -19 -1
-8 3 -5 6 6 6 11 1 17 -2 13 -5z m-2022 -15 c11 -16 1 -19 -13 -3 -7 8 -8 14
-3 14 5 0 13 -5 16 -11z m2042 -5 c-3 -3 -12 -4 -19 -1 -8 3 -5 6 6 6 11 1 17
-2 13 -5z m-2710 -10 c-3 -3 -12 -4 -19 -1 -8 3 -5 6 6 6 11 1 17 -2 13 -5z
m356 -1 c-7 -2 -21 -2 -30 0 -10 3 -4 5 12 5 17 0 24 -2 18 -5z m2314 1 c-3
-3 -12 -4 -19 -1 -8 3 -5 6 6 6 11 1 17 -2 13 -5z m408 -4 c-27 -5 -88 -9
-135 -10 -47 0 -103 -7 -124 -15 -35 -12 -38 -12 -23 2 19 19 107 30 237 30
81 0 88 -1 45 -7z m322 4 c-3 -3 -12 -4 -19 -1 -8 3 -5 6 6 6 11 1 17 -2 13
-5z m-810 -20 c-3 -3 -12 -4 -19 -1 -8 3 -5 6 6 6 11 1 17 -2 13 -5z m-1697
-14 c11 -7 5 -8 -20 -6 -19 2 -26 1 -15 -1 44 -10 37 -23 -12 -23 -28 0 -103
-11 -165 -25 -105 -22 -158 -24 -158 -5 0 9 92 35 195 55 84 16 155 18 175 5z
m1754 -38 c2 -4 -11 -6 -30 -4 -19 2 -34 6 -34 8 0 8 59 4 64 -4z m-199 -35
c-44 -11 -83 -25 -87 -31 -5 -7 -8 -5 -8 6 0 12 15 19 58 28 31 6 62 13 67 15
6 2 19 3 30 3 11 0 -16 -9 -60 -21z m192 7 c-3 -3 -12 -4 -19 -1 -8 3 -5 6 6
6 11 1 17 -2 13 -5z m-2187 -19 c19 -23 8 -25 -14 -4 -11 11 -15 19 -9 19 6 0
16 -7 23 -15z m2107 -1 c-3 -3 -12 -4 -19 -1 -8 3 -5 6 6 6 11 1 17 -2 13 -5z
m-57 -14 c-34 -11 -60 -11 -35 0 11 5 29 8 40 8 16 0 15 -2 -5 -8z m362 -2
c-13 -13 -80 -38 -104 -38 -9 0 -18 -5 -20 -11 -2 -6 -20 -12 -40 -13 -49 -2
-41 4 60 40 98 35 123 41 104 22z m-1892 -8 c0 -5 -2 -10 -4 -10 -3 0 -8 5
-11 10 -3 6 -1 10 4 10 6 0 11 -4 11 -10z m2410 6 c0 -3 -4 -8 -10 -11 -5 -3
-10 -1 -10 4 0 6 5 11 10 11 6 0 10 -2 10 -4z m-2523 -12 c-3 -3 -12 -4 -19
-1 -8 3 -5 6 6 6 11 1 17 -2 13 -5z m92 -38 c37 -24 75 -55 86 -67 l20 -24
-25 21 c-37 32 -110 78 -115 72 -2 -2 28 -27 68 -56 40 -29 67 -52 61 -52 -6
0 -27 12 -46 28 -43 33 -62 46 -108 74 -20 12 -30 23 -22 25 6 3 10 9 6 14
-11 18 12 8 75 -35z m1448 28 c-3 -3 -12 -4 -19 -1 -8 3 -5 6 6 6 11 1 17 -2
13 -5z m876 -81 c-7 -2 -21 -2 -30 0 -10 3 -4 5 12 5 17 0 24 -2 18 -5z m-978
-18 c44 -8 115 -14 157 -15 56 0 81 -4 92 -16 23 -23 19 -27 -9 -8 -18 12 -37
14 -72 10 -27 -4 -79 -2 -118 4 -138 22 -198 23 -239 6 -50 -21 -54 -20 -25 3
46 35 90 39 214 16z m-1095 -97 c13 -10 21 -20 19 -23 -3 -2 -21 7 -40 20 -24
18 -41 24 -60 20 -17 -4 -30 -1 -39 10 -10 12 -10 15 0 15 9 0 7 7 -6 21 -15
17 -5 14 42 -12 33 -19 71 -42 84 -51z m940 62 c0 -5 -7 -7 -15 -4 -8 4 -15 8
-15 10 0 2 7 4 15 4 8 0 15 -4 15 -10z m183 -7 c-7 -2 -19 -2 -25 0 -7 3 -2 5
12 5 14 0 19 -2 13 -5z m200 -10 c3 -5 -25 -9 -61 -9 -46 -1 -59 1 -42 6 33
11 98 12 103 3z m-864 -47 c22 -12 22 -13 -12 -12 -20 1 -38 4 -41 7 -4 3 -48
-5 -98 -18 -51 -12 -113 -23 -139 -23 -58 0 -66 -9 -32 -32 16 -10 23 -18 16
-18 -6 0 -15 5 -19 11 -4 7 -21 9 -40 6 -39 -7 -44 0 -11 13 20 8 21 9 2 9
-11 1 -32 -6 -45 -15 l-25 -17 21 22 c16 18 42 25 125 36 57 8 124 21 149 29
57 18 118 19 149 2z m-494 -6 c3 -6 -1 -7 -9 -4 -18 7 -21 14 -7 14 6 0 13 -4
16 -10z m930 -12 c-33 -5 -65 -14 -72 -20 -9 -7 -17 -5 -28 5 -13 14 -13 16 7
20 13 2 52 4 88 4 l65 1 -60 -10z m-125 -17 c0 -10 -19 -15 -122 -32 -43 -6
-78 -16 -78 -20 0 -5 -3 -8 -7 -7 -14 4 -107 -14 -128 -24 -20 -9 -20 -9 -1 6
27 22 -2 21 -33 0 -22 -16 -23 -16 -12 4 8 15 33 25 103 41 179 40 278 51 278
32z m-503 -27 c-3 -3 -12 -4 -19 -1 -8 3 -5 6 6 6 11 1 17 -2 13 -5z m-530
-36 c-3 -7 -5 -2 -5 12 0 14 2 19 5 13 2 -7 2 -19 0 -25z m1556 -25 c-7 -2
-21 -2 -30 0 -10 3 -4 5 12 5 17 0 24 -2 18 -5z m-368 -19 c108 -14 225 -50
225 -69 0 -3 -18 4 -40 15 -23 12 -78 26 -123 32 -96 12 -219 35 -197 37 9 1
70 -6 135 -15z m-668 -30 c-3 -3 -12 -4 -19 -1 -8 3 -5 6 6 6 11 1 17 -2 13
-5z m783 -14 c15 -5 -4 -6 -45 -3 -38 3 -72 7 -74 9 -8 7 94 2 119 -6z m-790
-10 c11 -8 7 -9 -15 -4 -37 8 -45 14 -19 14 10 0 26 -5 34 -10z m-210 -38 c33
-9 33 -10 7 -11 -31 -1 -91 21 -101 38 -5 7 5 6 26 -3 18 -8 49 -19 68 -24z
m397 2 c-3 -3 -12 -4 -19 -1 -8 3 -5 6 6 6 11 1 17 -2 13 -5z m-40 -10 c-3 -3
-12 -4 -19 -1 -8 3 -5 6 6 6 11 1 17 -2 13 -5z m-48 -8 c-2 -2 -22 -6 -44 -10
-29 -5 -36 -4 -25 3 13 10 79 16 69 7z"/>
<path d="M2698 4013 c6 -2 18 -2 25 0 6 3 1 5 -13 5 -14 0 -19 -2 -12 -5z"/>
<path d="M3460 2080 c-18 -12 -2 -12 25 0 13 6 15 9 5 9 -8 0 -22 -4 -30 -9z"/>
<path d="M3381 2054 c-18 -8 -31 -17 -29 -20 3 -2 25 4 49 15 24 11 37 20 29
19 -8 0 -30 -6 -49 -14z"/>
<path d="M3976 2075 c-11 -8 -17 -17 -14 -20 2 -3 13 4 23 15 21 23 18 25 -9
5z"/>
<path d="M3780 1886 c0 -2 11 -6 25 -8 13 -3 22 -1 19 3 -5 9 -44 13 -44 5z"/>
<path d="M1538 1233 c7 -3 16 -2 19 1 4 3 -2 6 -13 5 -11 0 -14 -3 -6 -6z"/>
<path d="M1420 1210 c-18 -12 -2 -12 25 0 13 6 15 9 5 9 -8 0 -22 -4 -30 -9z"/>
<path d="M1675 1110 c3 -5 11 -10 16 -10 6 0 7 5 4 10 -3 6 -11 10 -16 10 -6
0 -7 -4 -4 -10z"/>
<path d="M1880 960 c0 -6 7 -10 15 -10 8 0 15 2 15 4 0 2 -7 6 -15 10 -8 3
-15 1 -15 -4z"/>
</g>
</svg>
